<mxfile host="65bd71144e">
    <diagram id="tBObkPgj_JnJxlPLdDJt" name="async-defer">
        <mxGraphModel dx="1066" dy="619" grid="0" gridSize="10" guides="1" tooltips="1" connect="1" arrows="1" fold="1" page="0" pageScale="1" pageWidth="827" pageHeight="1169" background="#ffffff" math="0" shadow="0">
            <root>
                <mxCell id="0"/>
                <mxCell id="1" parent="0"/>
                <mxCell id="3" value="" style="whiteSpace=wrap;html=1;aspect=fixed;fillColor=#33FF33;strokeColor=#000000;fontColor=#ffffff;" vertex="1" parent="1">
                    <mxGeometry x="80" y="55" width="20" height="20" as="geometry"/>
                </mxCell>
                <mxCell id="4" value="&lt;b&gt;HTML 解析&lt;/b&gt;" style="text;html=1;strokeColor=none;fillColor=none;align=left;verticalAlign=middle;whiteSpace=wrap;rounded=0;" vertex="1" parent="1">
                    <mxGeometry x="107" y="50" width="100" height="30" as="geometry"/>
                </mxCell>
                <mxCell id="5" value="" style="whiteSpace=wrap;html=1;aspect=fixed;fillColor=#999999;strokeColor=#000000;fontColor=#333333;" vertex="1" parent="1">
                    <mxGeometry x="80" y="85" width="20" height="20" as="geometry"/>
                </mxCell>
                <mxCell id="6" value="&lt;b&gt;HTML 解析阻塞&lt;/b&gt;" style="text;html=1;strokeColor=none;fillColor=none;align=left;verticalAlign=middle;whiteSpace=wrap;rounded=0;" vertex="1" parent="1">
                    <mxGeometry x="107" y="80" width="100" height="30" as="geometry"/>
                </mxCell>
                <mxCell id="7" value="" style="whiteSpace=wrap;html=1;aspect=fixed;fillColor=#6666FF;strokeColor=#000000;fontColor=#ffffff;" vertex="1" parent="1">
                    <mxGeometry x="80" y="115" width="20" height="20" as="geometry"/>
                </mxCell>
                <mxCell id="8" value="&lt;b&gt;js 下载&lt;/b&gt;" style="text;html=1;strokeColor=none;fillColor=none;align=left;verticalAlign=middle;whiteSpace=wrap;rounded=0;" vertex="1" parent="1">
                    <mxGeometry x="107" y="110" width="100" height="30" as="geometry"/>
                </mxCell>
                <mxCell id="9" value="" style="whiteSpace=wrap;html=1;aspect=fixed;fillColor=#FF3399;strokeColor=#000000;fontColor=#ffffff;" vertex="1" parent="1">
                    <mxGeometry x="80" y="145" width="20" height="20" as="geometry"/>
                </mxCell>
                <mxCell id="10" value="&lt;b&gt;js 执行&lt;/b&gt;" style="text;html=1;strokeColor=none;fillColor=none;align=left;verticalAlign=middle;whiteSpace=wrap;rounded=0;" vertex="1" parent="1">
                    <mxGeometry x="107" y="140" width="100" height="30" as="geometry"/>
                </mxCell>
                <mxCell id="14" value="&lt;b style=&quot;border-color: var(--border-color); font-size: 12px;&quot;&gt;&lt;font style=&quot;border-color: var(--border-color); font-size: 14px;&quot;&gt;&amp;lt;script&amp;gt;&lt;/font&gt;&lt;/b&gt;" style="shape=step;perimeter=stepPerimeter;whiteSpace=wrap;html=1;fixedSize=1;strokeColor=#666666;fontSize=14;fillColor=#f5f5f5;gradientColor=#b3b3b3;" vertex="1" parent="1">
                    <mxGeometry x="80" y="190" width="110" height="40" as="geometry"/>
                </mxCell>
                <mxCell id="16" value="" style="rounded=0;whiteSpace=wrap;html=1;strokeColor=#000000;fontSize=14;fillColor=#33FF33;" vertex="1" parent="1">
                    <mxGeometry x="80" y="260" width="200" height="20" as="geometry"/>
                </mxCell>
                <mxCell id="17" value="" style="rounded=0;whiteSpace=wrap;html=1;strokeColor=#000000;fontSize=14;fillColor=#999999;" vertex="1" parent="1">
                    <mxGeometry x="280" y="260" width="200" height="20" as="geometry"/>
                </mxCell>
                <mxCell id="18" value="" style="rounded=0;whiteSpace=wrap;html=1;strokeColor=#000000;fontSize=14;fillColor=#33FF33;" vertex="1" parent="1">
                    <mxGeometry x="460" y="260" width="200" height="20" as="geometry"/>
                </mxCell>
                <mxCell id="19" value="" style="rounded=0;whiteSpace=wrap;html=1;strokeColor=#000000;fontSize=14;fillColor=#6666FF;" vertex="1" parent="1">
                    <mxGeometry x="280" y="280" width="120" height="20" as="geometry"/>
                </mxCell>
                <mxCell id="20" value="" style="rounded=0;whiteSpace=wrap;html=1;strokeColor=#000000;fontSize=14;fillColor=#FF3399;" vertex="1" parent="1">
                    <mxGeometry x="400" y="301" width="60" height="20" as="geometry"/>
                </mxCell>
                <mxCell id="21" value="遇到 script 就会下载且停止 HTML 解析，同时等待 js 的执行完成，才会继续 DOM 树的构建" style="text;html=1;strokeColor=none;fillColor=none;align=left;verticalAlign=middle;whiteSpace=wrap;rounded=0;fontSize=14;" vertex="1" parent="1">
                    <mxGeometry x="207" y="195" width="583" height="30" as="geometry"/>
                </mxCell>
                <mxCell id="23" value="&lt;b style=&quot;border-color: var(--border-color); font-size: 12px;&quot;&gt;&lt;font style=&quot;border-color: var(--border-color); font-size: 14px;&quot;&gt;&amp;lt;script async&amp;gt;&lt;/font&gt;&lt;/b&gt;" style="shape=step;perimeter=stepPerimeter;whiteSpace=wrap;html=1;fixedSize=1;strokeColor=#666666;fontSize=14;fillColor=#f5f5f5;gradientColor=#b3b3b3;" vertex="1" parent="1">
                    <mxGeometry x="80" y="360" width="160" height="40" as="geometry"/>
                </mxCell>
                <mxCell id="24" value="" style="rounded=0;whiteSpace=wrap;html=1;strokeColor=#000000;fontSize=14;fillColor=#33FF33;" vertex="1" parent="1">
                    <mxGeometry x="80" y="430" width="320" height="20" as="geometry"/>
                </mxCell>
                <mxCell id="25" value="" style="rounded=0;whiteSpace=wrap;html=1;strokeColor=#000000;fontSize=14;fillColor=#999999;" vertex="1" parent="1">
                    <mxGeometry x="400" y="430" width="60" height="20" as="geometry"/>
                </mxCell>
                <mxCell id="26" value="" style="rounded=0;whiteSpace=wrap;html=1;strokeColor=#000000;fontSize=14;fillColor=#33FF33;" vertex="1" parent="1">
                    <mxGeometry x="460" y="430" width="200" height="20" as="geometry"/>
                </mxCell>
                <mxCell id="27" value="" style="rounded=0;whiteSpace=wrap;html=1;strokeColor=#000000;fontSize=14;fillColor=#6666FF;" vertex="1" parent="1">
                    <mxGeometry x="280" y="450" width="120" height="20" as="geometry"/>
                </mxCell>
                <mxCell id="28" value="" style="rounded=0;whiteSpace=wrap;html=1;strokeColor=#000000;fontSize=14;fillColor=#FF3399;" vertex="1" parent="1">
                    <mxGeometry x="400" y="471" width="60" height="20" as="geometry"/>
                </mxCell>
                <mxCell id="29" value="加上 async 的时候，下载不会阻塞 DOM 树的构建，但是执行还是会阻塞" style="text;html=1;strokeColor=none;fillColor=none;align=left;verticalAlign=middle;whiteSpace=wrap;rounded=0;fontSize=14;" vertex="1" parent="1">
                    <mxGeometry x="260" y="365" width="563" height="30" as="geometry"/>
                </mxCell>
                <mxCell id="30" value="&lt;b style=&quot;border-color: var(--border-color); font-size: 12px;&quot;&gt;&lt;font style=&quot;border-color: var(--border-color); font-size: 14px;&quot;&gt;&amp;lt;script defer&amp;gt;&lt;/font&gt;&lt;/b&gt;" style="shape=step;perimeter=stepPerimeter;whiteSpace=wrap;html=1;fixedSize=1;strokeColor=#666666;fontSize=14;fillColor=#f5f5f5;gradientColor=#b3b3b3;" vertex="1" parent="1">
                    <mxGeometry x="80" y="530" width="160" height="40" as="geometry"/>
                </mxCell>
                <mxCell id="31" value="" style="rounded=0;whiteSpace=wrap;html=1;strokeColor=#000000;fontSize=14;fillColor=#33FF33;" vertex="1" parent="1">
                    <mxGeometry x="80" y="600" width="580" height="20" as="geometry"/>
                </mxCell>
                <mxCell id="34" value="" style="rounded=0;whiteSpace=wrap;html=1;strokeColor=#000000;fontSize=14;fillColor=#6666FF;" vertex="1" parent="1">
                    <mxGeometry x="280" y="620" width="120" height="20" as="geometry"/>
                </mxCell>
                <mxCell id="35" value="" style="rounded=0;whiteSpace=wrap;html=1;strokeColor=#000000;fontSize=14;fillColor=#FF3399;" vertex="1" parent="1">
                    <mxGeometry x="660" y="640" width="60" height="20" as="geometry"/>
                </mxCell>
                <mxCell id="36" value="加上 defer 的时候，下载也不会阻塞，但是不执行 js，会等待 DOM 树构建完成之后才执行" style="text;html=1;strokeColor=none;fillColor=none;align=left;verticalAlign=middle;whiteSpace=wrap;rounded=0;fontSize=14;" vertex="1" parent="1">
                    <mxGeometry x="260" y="535" width="563" height="30" as="geometry"/>
                </mxCell>
            </root>
        </mxGraphModel>
    </diagram>
    <diagram id="xunq0D34xiBLFE23-MTI" name="preconnect">
        <mxGraphModel dx="1466" dy="1019" grid="0" gridSize="10" guides="1" tooltips="1" connect="1" arrows="1" fold="1" page="0" pageScale="1" pageWidth="827" pageHeight="1169" math="0" shadow="0">
            <root>
                <mxCell id="0"/>
                <mxCell id="1" parent="0"/>
                <mxCell id="z0wNYJZISKAHlEuY0Ha--1" value="&lt;b style=&quot;border-color: var(--border-color); font-size: 12px;&quot;&gt;&lt;font style=&quot;border-color: var(--border-color); font-size: 14px;&quot;&gt;使用&amp;nbsp;&lt;/font&gt;&lt;/b&gt;&lt;span style=&quot;color: rgb(54, 60, 66); font-family: SourceHanSansSC, &amp;quot;JetBrains Mono&amp;quot;, -apple-system, sans-serif; orphans: 4; text-align: left;&quot;&gt;preconnect &lt;/span&gt;" style="shape=step;perimeter=stepPerimeter;whiteSpace=wrap;html=1;fixedSize=1;strokeColor=#666666;fontSize=14;fillColor=#f5f5f5;gradientColor=#b3b3b3;" vertex="1" parent="1">
                    <mxGeometry x="-120" y="-40" width="180" height="40" as="geometry"/>
                </mxCell>
                <mxCell id="z0wNYJZISKAHlEuY0Ha--2" value="&lt;b style=&quot;border-color: var(--border-color); font-size: 12px;&quot;&gt;&lt;font style=&quot;border-color: var(--border-color); font-size: 14px;&quot;&gt;不使用&amp;nbsp;&lt;/font&gt;&lt;/b&gt;&lt;span style=&quot;color: rgb(54, 60, 66); font-family: SourceHanSansSC, &amp;quot;JetBrains Mono&amp;quot;, -apple-system, sans-serif; orphans: 4; text-align: left;&quot;&gt;preconnect &lt;/span&gt;" style="shape=step;perimeter=stepPerimeter;whiteSpace=wrap;html=1;fixedSize=1;strokeColor=#666666;fontSize=14;fillColor=#f5f5f5;gradientColor=#b3b3b3;" vertex="1" parent="1">
                    <mxGeometry x="-120" y="160" width="180" height="40" as="geometry"/>
                </mxCell>
                <mxCell id="9aQbzXOVi4CPu3p5OKl4-1" value="&lt;b&gt;DNS / TCP / TLS&lt;/b&gt;" style="rounded=0;whiteSpace=wrap;html=1;strokeColor=#36393d;fontSize=14;fillColor=#FFFF00;" vertex="1" parent="1">
                    <mxGeometry x="-120" y="30" width="150" height="30" as="geometry"/>
                </mxCell>
                <mxCell id="fCE42u8kaNRr85Vkhy7W-1" value="" style="rounded=0;whiteSpace=wrap;html=1;strokeColor=#000000;fontSize=14;fillColor=#6666FF;" vertex="1" parent="1">
                    <mxGeometry x="30" y="30" width="200" height="30" as="geometry"/>
                </mxCell>
                <mxCell id="fCE42u8kaNRr85Vkhy7W-2" value="&lt;b&gt;DNS / TCP / TLS&lt;/b&gt;" style="rounded=0;whiteSpace=wrap;html=1;strokeColor=#36393d;fontSize=14;fillColor=#FFFF00;" vertex="1" parent="1">
                    <mxGeometry x="-120" y="70" width="150" height="30" as="geometry"/>
                </mxCell>
                <mxCell id="fCE42u8kaNRr85Vkhy7W-3" value="" style="endArrow=none;dashed=1;html=1;strokeWidth=2;fontSize=14;fillColor=#eeeeee;strokeColor=#808080;" edge="1" parent="1">
                    <mxGeometry width="50" height="50" relative="1" as="geometry">
                        <mxPoint x="260" y="320" as="sourcePoint"/>
                        <mxPoint x="260" y="-40" as="targetPoint"/>
                    </mxGeometry>
                </mxCell>
                <mxCell id="fCE42u8kaNRr85Vkhy7W-4" value="&lt;b&gt;DNS / TCP / TLS&lt;/b&gt;" style="rounded=0;whiteSpace=wrap;html=1;strokeColor=#36393d;fontSize=14;fillColor=#FFFF00;" vertex="1" parent="1">
                    <mxGeometry x="-120" y="230" width="150" height="30" as="geometry"/>
                </mxCell>
                <mxCell id="fCE42u8kaNRr85Vkhy7W-5" value="" style="rounded=0;whiteSpace=wrap;html=1;strokeColor=#000000;fontSize=14;fillColor=#6666FF;" vertex="1" parent="1">
                    <mxGeometry x="30" y="230" width="200" height="30" as="geometry"/>
                </mxCell>
                <mxCell id="fCE42u8kaNRr85Vkhy7W-6" value="" style="rounded=0;whiteSpace=wrap;html=1;strokeColor=#000000;fontSize=14;fillColor=#6666FF;" vertex="1" parent="1">
                    <mxGeometry x="280" y="70" width="200" height="30" as="geometry"/>
                </mxCell>
                <mxCell id="fCE42u8kaNRr85Vkhy7W-7" value="" style="endArrow=none;dashed=1;html=1;strokeWidth=2;fontSize=14;fillColor=#eeeeee;strokeColor=#808080;" edge="1" parent="1">
                    <mxGeometry width="50" height="50" relative="1" as="geometry">
                        <mxPoint x="650" y="320" as="sourcePoint"/>
                        <mxPoint x="650" y="-40" as="targetPoint"/>
                    </mxGeometry>
                </mxCell>
                <mxCell id="fCE42u8kaNRr85Vkhy7W-8" value="&lt;font style=&quot;font-size: 12px;&quot;&gt;耗时2.1秒，少去了&lt;b style=&quot;border-color: var(--border-color);&quot;&gt;DNS / TCP / TLS &lt;/b&gt;&lt;span style=&quot;border-color: var(--border-color);&quot;&gt;的耗时&lt;/span&gt;&lt;/font&gt;" style="text;html=1;strokeColor=none;fillColor=none;align=left;verticalAlign=middle;whiteSpace=wrap;rounded=0;fontSize=14;" vertex="1" parent="1">
                    <mxGeometry x="280" y="100" width="240" height="30" as="geometry"/>
                </mxCell>
                <mxCell id="fCE42u8kaNRr85Vkhy7W-9" value="&lt;b&gt;DNS / TCP / TLS&lt;/b&gt;" style="rounded=0;whiteSpace=wrap;html=1;strokeColor=#36393d;fontSize=14;fillColor=#FFFF00;" vertex="1" parent="1">
                    <mxGeometry x="280" y="230" width="150" height="30" as="geometry"/>
                </mxCell>
                <mxCell id="fCE42u8kaNRr85Vkhy7W-10" value="" style="rounded=0;whiteSpace=wrap;html=1;strokeColor=#000000;fontSize=14;fillColor=#6666FF;" vertex="1" parent="1">
                    <mxGeometry x="430" y="230" width="200" height="30" as="geometry"/>
                </mxCell>
                <mxCell id="fCE42u8kaNRr85Vkhy7W-11" value="&lt;font style=&quot;font-size: 12px;&quot;&gt;耗时2.6秒&lt;/font&gt;" style="text;html=1;strokeColor=none;fillColor=none;align=left;verticalAlign=middle;whiteSpace=wrap;rounded=0;fontSize=14;" vertex="1" parent="1">
                    <mxGeometry x="280" y="260" width="240" height="30" as="geometry"/>
                </mxCell>
                <mxCell id="fCE42u8kaNRr85Vkhy7W-13" value="&lt;span style=&quot;&quot;&gt;&lt;b&gt;第二页的表现&lt;/b&gt;&lt;/span&gt;" style="html=1;shadow=0;dashed=0;align=center;verticalAlign=middle;shape=mxgraph.arrows2.arrow;dy=0.6;dx=40;notch=0;strokeColor=#36393d;fontSize=12;fillColor=#cce5ff;" vertex="1" parent="1">
                    <mxGeometry x="186" y="-107" width="178" height="59" as="geometry"/>
                </mxCell>
            </root>
        </mxGraphModel>
    </diagram>
</mxfile>